<svg version="1" xmlns="http://www.w3.org/2000/svg" width="933.333" height="933.333" viewBox="0 0 700.000000 700.000000"><path d="M341.5.9c-18.8 4.6-30.9 22.9-27.4 41.8 3.4 18 19.8 30.9 38 29.7 13.2-.8 24.4-8.6 30.7-21.4 2.3-4.8 2.7-6.7 2.7-14.5 0-7.6-.4-9.9-2.7-14.7C376.8 8.9 365.2 1 351.6.5c-3.9-.2-8.4 0-10.1.4zM281 26.5C193.3 45.2 116.1 97.3 68.3 169.8c-10.3 15.6-20.6 33.2-19.9 34 .2.1 1.9.5 3.9.7 5.2.7 15.5 4.7 20.7 8 2.5 1.6 5.1 2.8 5.9 2.6.7-.1 1.1.2.8.6-.3.5 1.6 3.3 4.3 6.3 4.6 5.1 12 18 12 20.8 0 .6 4.1-1 9.3-3.8 9.4-5.2 27-13.9 40.8-20.3l7.7-3.5 5.2-10.4c6.5-12.9 11.4-21.8 15.8-28.6l3.3-5.3-2.8.7c-14.9 3.7-65.8 26.1-88.1 38.8l-6.3 3.7 3.8-6.8c18-32.3 47.5-66.4 77.3-89.4 7.8-6 27.7-19.9 28.5-19.9.2 0 3.9-2.1 8.2-4.7C208 87.8 226.1 79.1 239 74c13.3-5.3 40.9-13.3 53.2-15.4 2.2-.4-.5 2.8-13.5 15.7-19.2 19-23 23.2-36.3 39.2-22.6 27.3-39.8 52.4-57.3 83.9-7.4 13.2-10.9 20.1-20.5 40.9-13.5 29-28 73.3-35.1 107l-2.2 10.7 6.7 10.3c7.1 11 20.2 28.9 20.6 28.4.2-.2.6-2.1.9-4.3.3-2.1 1-6.4 1.5-9.4s1.2-7.1 1.5-9c6.4-38.4 21.4-86.5 38.7-124 27.2-58.7 66.4-113.8 110.5-155 5.5-5.2 10.1-10 10.1-10.5.1-.6-1.8-2.6-4.2-4.5-5-4.1-9.5-9.7-12.9-16.2-1.4-2.6-2.8-4.4-3.2-4-.5.4-.5-.1-.2-1 .3-1-.1-4-.9-6.8-1.4-4.7-2-17.1-1.1-23.3.5-3.3.1-3.3-14.3-.2z"/><path d="M404.8 24.5c-.4.4-.3 1.7.1 2.9 1.2 3.1.5 17.3-1.2 23.3-1 3.8-1.1 5.5-.3 6.3.8.8.7 1.1-.2.8-.8-.2-3.1 2.5-5.3 6.2-2.2 3.6-6.8 9.2-10.3 12.6l-6.3 6.1 11.5 10.9c6.4 6 16.5 16.3 22.4 22.9 6 6.5 11.5 12 12.1 12.1.7.1 4.8.7 9.2 1.4 4.4.7 8.9 1.4 10 1.6 1.1.2 3.4.6 5 .9 2.5.4 5.4 1 9.5 2 2.3.5 9 1.6 9.2 1.5.2-.1 1.6.3 3.1.9 3.5 1.3 3.5 1.3-5.2-9.9-14.1-18.4-26.7-32.5-48-53.7-17.6-17.4-17.9-16.4 3.4-11.1 43 10.6 82.2 29.9 117.6 58 12.8 10.1 36.9 34.1 47.1 46.8 13.1 16.5 32.2 46 29.7 46-.6 0-2.3-.8-3.7-1.9-3.3-2.3-41.3-21-50.2-24.6-3.6-1.5-7.8-3.3-9.5-4-1.6-.8-9.1-3.6-16.7-6.4-29-10.7-60.5-19.4-89.3-24.6-8.2-1.5-15.7-2.8-16.5-3-.8-.1-4.2-.6-7.5-1s-7.1-.8-8.5-1c-2.6-.4-11.5-1.3-18.5-2-24.6-2.4-73.6-2.4-95-.1-1.6.2-6.1.7-10 1.1-3.8.3-7.5 1-8.2 1.3-1.1.6-15.7 18.7-19.3 23.8-.8 1.2-3.5 5-5.9 8.4l-4.4 6.3 3.4-.7c1.9-.3 4.4-.8 5.5-1 11.2-2.2 37.2-5.2 53.9-6.3 21.6-1.4 70.9-.6 80 1.2 1.1.2 4.9.6 8.5 1 15.5 1.3 33.5 4.3 54.5 9 26.8 6 49.6 13 75.5 23.2 21.7 8.6 39.6 17 61 28.6l6.4 3.5 3.7-7.6c2-4.2 5.9-10.3 8.8-13.5 2.8-3.2 4.9-6.3 4.5-6.8-.3-.6 0-.9.8-.7.7.2 3.6-1.1 6.3-2.8 5.3-3.4 14.6-6.9 20.7-7.9 3-.5 3.6-.9 3.1-2.3-.6-1.6-6-11.4-8.6-15.7-17.3-28.2-31.2-46.1-52.7-67.5-46.4-46.4-104.2-78-168-91.9-13.3-2.9-16.4-3.3-17.2-2.6z"/><path d="M487.2 215.7c.2.5 4.5 9.1 9.5 19.3 19.6 39.6 32.9 78.7 42.2 123.4 1.7 7.8 3.3 16.3 3.6 19.1.3 2.7 1 7.2 1.5 10 .5 2.7 1.2 7.9 1.6 11.5.3 3.6.8 7.2.9 8 2.6 14.7 2.6 92.3 0 103-.2.8-.6 4.6-1 8.3-.3 3.7-.8 7.6-.9 8.5-.2.9-.7 3.9-1 6.7-.7 5.2-4.4 25.5-5.2 29.1-.5 1.8-.1 2.1 3.8 2.2 6.7.3 14.8 2.2 20.8 5 3 1.4 6.1 2.6 6.8 2.5.6 0 1.2.5 1.2 1.3s.4 1.4 1 1.4c1.9 0 12.9 12 16.1 17.6l3.3 5.8 6.4-7c53.2-57.7 83.9-126.8 90.9-204.4 1.7-18.8.5-58.2-2.2-74.5-.2-1.1-.4-2.8-.4-3.8-.1-1.6-.3-1.7-3.3-.1-2.9 1.5-14 5.6-14.6 5.4-1.6-.6-14.2 1.5-14.2 2.4 0 .6-.4.5-.9-.3s-1.6-1.6-2.4-1.7c-8.8-1.3-20.4-5.6-26.2-9.9-2-1.4-2.2-1.2-4.9 5.3-3.8 8.8-14.4 29.3-21.2 40.9l-5.5 9.3 1.3 6.7c.6 3.8 1.1 7.1 1 7.5-.1.4.3 2.9.8 5.7.5 2.7 1.2 7.6 1.5 10.8.3 3.2.8 6.9 1 8.3.2 1.4.5 4.4.7 6.7.1 2.4.5 4.3.8 4.3 1.2 0 20.7-30.3 29.7-46 4.8-8.6 12-22.2 15.8-30.3 6.7-14 8.1-16.3 8.2-13.5.1.7.5 4.7.9 8.8 1.1 9.4 1.1 49 .1 58.9-.6 6.4-1.1 9.9-3.3 23.6-.2 1.6-.9 5.2-1.4 8-.6 2.7-1.2 5.9-1.4 7-2.1 10.8-10.3 36.1-16.2 50.4-10.2 24.3-27 52.7-43.1 72.6-7.8 9.7-19 22.1-17.9 19.9.5-1 .9-3.2 2.2-10.9.3-1.7.7-3.7.9-4.5.3-.8.7-3.2 1-5.3 1.2-8.7 1.6-11.2 2-13.7.7-4 1.9-14.1 3-24.5 2.7-26.3 2.7-76.9 0-102.5-.2-1.9-.6-5.8-1-8.5-.3-2.8-1.1-8.6-1.6-13-5.7-45.4-21.5-101.8-40.7-145l-4.8-10.9-6-2.4c-6.1-2.4-38-13.2-39-13.2-.3 0-.4.3-.2.7zM33.5 224.5c-10.3 3.1-17.9 9.6-23.1 19.7-2.5 4.7-2.8 6.4-2.8 14.8-.1 8.5.3 10.1 2.8 15.5 15 30.7 59.3 26.5 67.9-6.5 4-15.3-3.9-33.5-17.7-40.7-7.7-4-19.2-5.2-27.1-2.8z"/><path d="M646.6 224.6c-9.7 3-17.5 9.8-22.2 19.3-3.7 7.6-4.3 19.6-1.3 27.5 9 24.2 39 31.9 57.8 15 8.5-7.7 12.5-16.7 12.3-27.9-.5-23.8-23.9-40.8-46.6-33.9zM73.1 306.1c-5.1 3.4-13.5 6.6-19.4 7.5-2.3.4-5 1.4-5.9 2.2-1.6 1.3-1.8 1.3-1.8 0 0-1.1-.7-1.4-2.5-1.1-3.9.8-15.4-1.6-22.7-4.7l-6.8-2.8-.1 2.6c0 1.5-.2 3.6-.4 4.7-3.1 16.2-3.7 64.3-1.1 80.5.3 1.4.7 5 1 8 3.7 33.4 16.5 75 33.7 109.2C51.9 521.8 64.7 544 66 545c.3.3 1.6 2.2 2.9 4.2 1.2 2 6.2 9 11.1 15.4 7.8 10.2 12 15.1 26.1 30.6 2.8 3.2 3.3 3 6.3-2.9 2.2-4.3 9.1-12.2 13.8-15.6 2.1-1.6 3.5-3.3 3.2-3.9-.3-.5 0-.8.7-.7.8.2 2.8-.4 4.4-1.3 5.2-2.7 17-5.8 22.4-5.8 5.6 0 5.4.6 3.7-7.5-1.3-6.6-3.6-19.5-4-22.5-.3-1.9-1-7.6-1.6-12.5-.6-5-1.3-10.1-1.5-11.5-.2-1.4-.4-4.1-.4-6-.1-3.1-1.6-5-12.4-16.1-6.7-6.9-14.8-15.4-17.9-19l-5.8-6.4.5 13c.5 14.7 1.4 28.3 2 33.5.3 1.9 1.2 9.3 2 16.5 1.6 13.2 6.2 40.2 7.1 41.7 1.5 2.3-1.5.3-4.9-3.5-44.9-49.1-73.1-114.6-78.4-182.2-1.6-20.1-.2-61 2.2-63.4.3-.2.9.9 1.5 2.5 3.3 8.6 21.2 42.4 28.6 54.2 1.9 2.9 3.4 5.5 3.4 5.8 0 1.7 29.6 43.7 38.1 53.9 35.1 42.3 67.5 72.8 109.9 103.2 8.2 5.9 36.5 24.3 37.4 24.3.3 0 3.1 1.6 6.3 3.5l5.8 3.5 11-3.1c11.8-3.2 30.8-9.4 33.1-10.7 1-.6-2.1-2.6-10.3-6.7-16.7-8.5-33.5-18.2-50.2-29.2-12.9-8.5-16.4-10.9-26.6-18.6-5.6-4.2-24-19.1-28-22.7-53.6-48-91.4-97.1-121.5-158.1l-8.7-17.7-4.2 2.9z"/><path d="M515.5 457.5c-15 15-19.4 19-33.6 30.7-49.6 40.6-105.4 71.1-165.9 90.6-18.1 5.8-39.1 11.6-50 13.7-20.1 3.9-41.3 7.4-47.7 7.8-2.3.2-4.5.5-4.7.8-.2.2.1 3.3.9 6.7 1.4 7.1 1.7 18.1.5 22.3-.5 1.8-.5 3.1.2 3.5.7.4.5 1-.6 1.6-.9.5-1.6 1.5-1.6 2.2 0 2.9-7.2 15.4-11.5 20-2.5 2.7-4.4 5-4.2 5.1 2.2 1.2 20.4 9.2 27.1 11.9 21.7 8.8 51.5 16.8 74.1 20.1 6.1.9 12.1 1.8 13.5 2.1 13 2.3 62.6 2.2 76.2-.1 1.2-.2 4.6-.7 7.3-1 2.8-.3 5.7-.7 6.5-1 .8-.2 3.5-.6 6-.9 2.5-.3 6-1 7.8-1.5 1.8-.5 3.6-1 4-1 12.3-1.1 49.3-13 69.2-22.3 3.6-1.6 8.2-3.7 10.3-4.5 2-.8 3.7-1.7 3.7-2 0-.3-1.6-2.1-3.5-4-4.3-4.3-9.9-13.5-11.7-19.1-.9-3-1.8-4.2-3.3-4.3-1.1 0-1.5-.3-.8-.5.8-.4 1-3.5.7-10.7-.2-6.6.1-12.3 1-16.2.8-3.3 1.4-6.1 1.3-6.2-.2-.2-6.4-1-13.2-1.8-2.7-.3-7.2-1-10-1.5-2.7-.5-6.8-1.1-9-1.4-2.2-.3-9.4-1.7-16-3.1-6.6-1.3-12.9-2.5-13.9-2.5-1.1 0-6.7 2.4-12.5 5.4-9.3 4.7-26.7 12.8-32.6 15.1-1.6.6-1 1.1 3.5 2.6 17.4 6.1 60.4 15.5 84.5 18.5 2.8.4 5.7.8 6.5 1 .8.1 3.1.3 5 .3l3.5.1-3.1 2c-2.8 1.8-26.6 11.6-30.3 12.6-.9.2-6.1 1.7-11.6 3.4-13.3 4.1-32.4 8.3-43.5 9.6-3 .3-5.8.8-6.1 1-3 1.7-51.1 2.5-64.9 1.1-35.7-3.8-63.8-11-95.1-24.3l-11.4-4.9 5.5-.7c3-.4 7.8-1 10.5-1.3 2.8-.3 6.1-.7 7.5-1 1.4-.3 4.1-.7 6-1 1.9-.3 5.8-1 8.5-1.5 2.8-.5 6.1-1.2 7.5-1.4 7.3-1.3 13.8-2.8 25.5-5.6 7.2-1.7 13.7-3.3 14.5-3.5 4.7-1.1 39.5-12.2 42.5-13.5 1.1-.5 5.1-2.1 8.9-3.5 19.7-7.2 51-22 72.5-34.2 10.3-5.8 33.9-20.4 36.6-22.5.6-.5 6.2-4.5 12.5-8.9 18.7-13.2 50.9-39.8 52.9-43.8.9-1.8 1.2-8 1.5-28.6.3-21.6 1.3-21.2-13.9-6zM148.1 585.9c-9.4 3.6-16.2 9.7-20.8 19-3.9 7.9-4.3 20-.9 28.4 5.7 14 18.5 22.8 33.1 22.9 16.1.2 30-9.7 34.8-24.7 5.6-17.2-1.8-35.4-17.6-43.4-8.6-4.4-20.3-5.3-28.6-2.2z"/><path d="M530.4 584.9c-11 2.8-21.7 12.6-25.3 23.1-10.5 30.7 21.7 59 50.6 44.4 27-13.7 26.1-52.6-1.5-65.2-6.1-2.7-17.7-3.9-23.8-2.3z"/></svg>