<?xml version="1.0" encoding="UTF-8" standalone="no"?>
<svg
   xmlns:dc="http://purl.org/dc/elements/1.1/"
   xmlns:cc="http://creativecommons.org/ns#"
   xmlns:rdf="http://www.w3.org/1999/02/22-rdf-syntax-ns#"
   xmlns:svg="http://www.w3.org/2000/svg"
   xmlns="http://www.w3.org/2000/svg"
   xmlns:sodipodi="http://sodipodi.sourceforge.net/DTD/sodipodi-0.dtd"
   xmlns:inkscape="http://www.inkscape.org/namespaces/inkscape"
   width="60"
   height="60"
   viewBox="0 0 70.633333 70.630851"
   version="1.1"
   id="svg38"
   sodipodi:docname="logo_h-b2211289.svg"
   inkscape:version="1.0.1 (3bc2e813f5, 2020-09-07)">
  <metadata
     id="metadata44">
    <rdf:RDF>
      <cc:Work
         rdf:about="">
        <dc:format>image/svg+xml</dc:format>
        <dc:type
           rdf:resource="http://purl.org/dc/dcmitype/StillImage" />
        <dc:title></dc:title>
      </cc:Work>
    </rdf:RDF>
  </metadata>
  <defs
     id="defs42" />
  <sodipodi:namedview
     pagecolor="#ffffff"
     bordercolor="#666666"
     borderopacity="1"
     objecttolerance="10"
     gridtolerance="10"
     guidetolerance="10"
     inkscape:pageopacity="0"
     inkscape:pageshadow="2"
     inkscape:window-width="1630"
     inkscape:window-height="1063"
     id="namedview40"
     showgrid="false"
     inkscape:zoom="3.6611111"
     inkscape:cx="172.32228"
     inkscape:cy="23.112727"
     inkscape:window-x="1205"
     inkscape:window-y="431"
     inkscape:window-maximized="0"
     inkscape:current-layer="svg38" />
  <g
     id="g62"
     transform="matrix(1.0071464,0,0,1.0071464,-126.15585,-0.00125066)">
    <path
       d="m 141.5,56.58 a 4.841,4.841 0 0 0 -1.07,0.06 5.57,5.57 0 0 0 -2.04,0.75 2.284,2.284 0 0 1 -0.22,-0.22 A 53.4,53.4 0 0 1 137,46.45 q 1.695,1.95 3.56,3.74 a 47.32,47.32 0 0 0 0.94,6.39 z"
       fill="#f4c300"
       id="path4" />
    <path
       d="m 157.8,55.68 a 46.85,46.85 0 0 1 -4.64,1.42 54.4,54.4 0 0 1 -23.18,-25.27 1.668,1.668 0 0 1 0.05,-0.31 5.4,5.4 0 0 0 2.09,-0.57 5.313,5.313 0 0 0 0.9,-0.58 50.92,50.92 0 0 0 24.78,25.31 z m 16.1,7.76 c -0.09,0.05 -0.18,0.1 -0.27,0.14 a 54.31,54.31 0 0 1 -10.57,-2.21 q 2.385,-0.99 4.65,-2.21 a 50.86,50.86 0 0 0 6.36,1.07 5.656,5.656 0 0 0 -0.17,3.21 z"
       fill="#0a85c7"
       id="path6" />
    <path
       d="M 178.2,49.336 A 54.267,54.267 0 0 1 147,63.566 c -0.08,-0.04 -0.17,-0.08 -0.25,-0.12 v -0.01 a 5.5,5.5 0 0 0 0.08,-2.18 5.3,5.3 0 0 0 -0.27,-1.04 50.9,50.9 0 0 0 31.73,-15.73 43.616,43.616 0 0 1 -0.09,4.85 z M 190.7,31.84 a 53.68,53.68 0 0 1 -5.36,9.35 54.94,54.94 0 0 0 -0.67,-5.11 49.95,49.95 0 0 0 2.98,-5.71 5.635,5.635 0 0 0 0.91,0.58 5.348,5.348 0 0 0 2.09,0.57 c 0.02,0.11 0.041,0.21 0.05,0.32 z"
       fill="#d13337"
       id="path8" />
    <path
       d="m 173,13.81 c -1.67,-0.39 -3.36,-0.71 -5.06,-0.94 a 50.46,50.46 0 0 0 -4.51,-4.62 5.624,5.624 0 0 0 2.03,-2.49 c 0.09,0.01 0.19,0.03 0.29,0.05 a 54.02,54.02 0 0 1 7.25,8 z m 9.5,43.36 a 2.291,2.291 0 0 1 -0.21,0.23 h -0.01 a 5.4,5.4 0 0 0 -3.12,-0.82 50.88,50.88 0 0 0 -5.15,-35.05 47.84,47.84 0 0 1 4.59,1.58 54.36,54.36 0 0 1 3.9,34.06 z"
       fill="#009f3d"
       id="path10" />
    <path
       d="m 143.1,17.08 a 50.45,50.45 0 0 0 -2.45,4.52 47.02,47.02 0 0 0 -5.73,2.85 4.631,4.631 0 0 0 -0.39,-0.99 5.5,5.5 0 0 0 -1.34,-1.71 2,2 0 0 1 0.15,-0.29 53.87,53.87 0 0 1 9.76,-4.38 z m 44.4,4.67 a 5.533,5.533 0 0 0 -1.35,1.71 4.79,4.79 0 0 0 -0.39,1.01 50.87,50.87 0 0 0 -34.98,-5.91 45.72,45.72 0 0 1 2.95,-3.89 54.33,54.33 0 0 1 33.63,6.81 1.739,1.739 0 0 1 0.14,0.27 z"
       fill="#1e2325"
       id="path12" />
    <path
       d="m 190.619,20.436 a 5.434,5.434 0 0 0 -1.25,0.25 5.3,5.3 0 0 0 -1.75,0.95 c -0.09,-0.05 -0.18,-0.11 -0.28,-0.16 a 30.672,30.672 0 0 0 -21.56,-15.67 1.507,1.507 0 0 0 -0.23,-0.21 5.544,5.544 0 0 0 0.36,-1.96 5.237,5.237 0 0 0 -0.15,-1.26 34.09,34.09 0 0 1 24.86,18.06 z"
       fill="#0a85c7"
       id="path14" />
    <path
       d="m 138.279,57.486 a 5.4,5.4 0 0 0 -1.45,1.37 5.723,5.723 0 0 0 -0.62,1.1 34,34 0 0 1 -9.49,-29.21 5.022,5.022 0 0 0 1.15,0.53 5.73,5.73 0 0 0 1.73,0.27 1.055,1.055 0 0 0 0.25,-0.02 c 0.04,0.1 0.08,0.2 0.13,0.3 a 30.682,30.682 0 0 0 8.22,25.34 1.873,1.873 0 0 0 0.08,0.32 z"
       fill="#009f3d"
       id="path16" />
    <path
       d="m 175.7,66.336 a 34.061,34.061 0 0 1 -30.72,0 5.079,5.079 0 0 0 0.86,-0.93 5.479,5.479 0 0 0 0.86,-1.81 1.526,1.526 0 0 0 0.3,-0.03 30.722,30.722 0 0 0 26.67,0.01 1.553,1.553 0 0 0 0.31,0.03 5.624,5.624 0 0 0 0.86,1.8 5.079,5.079 0 0 0 0.86,0.93 z"
       fill="#1e2325"
       id="path18" />
    <path
       d="m 192.7,46.486 a 33.7,33.7 0 0 1 -8.23,13.47 5.723,5.723 0 0 0 -0.62,-1.1 5.49,5.49 0 0 0 -1.44,-1.37 l 0.06,-0.32 a 30.6,30.6 0 0 0 8.24,-25.33 1.692,1.692 0 0 0 0.13,-0.31 1.055,1.055 0 0 0 0.25,0.02 5.619,5.619 0 0 0 1.72,-0.27 5.022,5.022 0 0 0 1.15,-0.53 33.7,33.7 0 0 1 -1.26,15.74 z"
       fill="#f4c300"
       id="path20" />
    <path
       d="m 155.139,5.606 a 2.2,2.2 0 0 0 -0.23,0.2 30.622,30.622 0 0 0 -21.55,15.65 c -0.1,0.05 -0.2,0.11 -0.3,0.17 a 5.541,5.541 0 0 0 -3,-1.19 34.09,34.09 0 0 1 24.86,-18.06 5.237,5.237 0 0 0 -0.15,1.26 5.389,5.389 0 0 0 0.37,1.97 z"
       fill="#d13337"
       id="path22" />
    <path
       d="m 157.2,8.256 a 50.97,50.97 0 0 0 -16.42,31.39 45.59,45.59 0 0 1 -2.77,-3.98 54.26,54.26 0 0 1 16.87,-29.86 2.741,2.741 0 0 1 0.28,-0.05 5.617,5.617 0 0 0 2.04,2.5 z"
       fill="#f4c300"
       id="path24" />
    <circle
       cx="141.3"
       cy="62.130001"
       r="3.638"
       fill="#0a85c7"
       id="circle26" />
    <circle
       cx="179.3"
       cy="62.130001"
       r="3.638"
       fill="#d13337"
       id="circle28" />
    <circle
       cx="191.10001"
       cy="25.98"
       r="3.638"
       fill="#009f3d"
       id="circle30" />
    <circle
       cx="160.3"
       cy="3.638"
       r="3.638"
       fill="#1e2325"
       id="circle32" />
    <circle
       cx="129.60001"
       cy="25.98"
       r="3.638"
       fill="#f4c300"
       id="circle34" />
  </g>
</svg>
