<svg width="360" height="60.458" viewBox="0 0 423.8 71.17" xmlns="http://www.w3.org/2000/svg"><path d="M45.13 65.459v4.389H0V2.105h44.271V6.5H4.866v26.614H39.31v4.2H4.866v28.145zm61.77-6.199q-9.828 11.07-22.8 11.07a27.88 27.88 0 01-12.74-2.958 32.4 32.4 0 01-10.07-7.824 37.21 37.21 0 01-6.584-11.07 34.83 34.83 0 01-2.385-12.59 36.2 36.2 0 012.335-12.88 35.81 35.81 0 016.487-10.97 31.22 31.22 0 019.876-7.585 27.95 27.95 0 0112.5-2.814 34.93 34.93 0 019.112 1.1 27.71 27.71 0 017.252 3.053 23.28 23.28 0 015.533 4.675 29.11 29.11 0 013.96 5.963l-4.009 2.381a21.79 21.79 0 00-9.112-9.685 27.01 27.01 0 00-12.83-3A22.89 22.89 0 0072.545 8.7a26.83 26.83 0 00-8.3 6.774 30.28 30.28 0 00-5.247 9.542 33.91 33.91 0 00-1.813 10.97 31.34 31.34 0 007.871 20.9 28.06 28.06 0 008.635 6.535 23.94 23.94 0 0010.69 2.434 25.46 25.46 0 0011.78-2.863 35.06 35.06 0 0010.73-9.064v-13.08h-15.36v-3.912h19.56v32.92h-4.2zm105.6 10.59V2.11h4.866v67.74z" fill="#1e2325"/><path d="M141.5 56.58a4.841 4.841 0 00-1.07.06 5.57 5.57 0 00-2.04.75 2.284 2.284 0 01-.22-.22A53.4 53.4 0 01137 46.45q1.695 1.95 3.56 3.74a47.32 47.32 0 00.94 6.39z" fill="#f4c300"/><path d="M157.8 55.68a46.85 46.85 0 01-4.64 1.42 54.4 54.4 0 01-23.18-25.27 1.668 1.668 0 01.05-.31 5.4 5.4 0 002.09-.57 5.313 5.313 0 00.9-.58 50.92 50.92 0 0024.78 25.31zm16.1 7.76c-.09.05-.18.1-.27.14a54.31 54.31 0 01-10.57-2.21q2.385-.99 4.65-2.21a50.86 50.86 0 006.36 1.07 5.656 5.656 0 00-.17 3.21z" fill="#0a85c7"/><path d="M178.2 49.336a54.267 54.267 0 01-31.2 14.23c-.08-.04-.17-.08-.25-.12v-.01a5.5 5.5 0 00.08-2.18 5.3 5.3 0 00-.27-1.04 50.9 50.9 0 0031.73-15.73 43.616 43.616 0 01-.09 4.85zm12.5-17.496a53.68 53.68 0 01-5.36 9.35 54.94 54.94 0 00-.67-5.11 49.95 49.95 0 002.98-5.71 5.635 5.635 0 00.91.58 5.348 5.348 0 002.09.57c.02.11.041.21.05.32z" fill="#d13337"/><path d="M173 13.81c-1.67-.39-3.36-.71-5.06-.94a50.46 50.46 0 00-4.51-4.62 5.624 5.624 0 002.03-2.49c.09.01.19.03.29.05a54.02 54.02 0 017.25 8zm9.5 43.36a2.291 2.291 0 01-.21.23h-.01a5.4 5.4 0 00-3.12-.82 50.88 50.88 0 00-5.15-35.05 47.84 47.84 0 014.59 1.58 54.36 54.36 0 013.9 34.06z" fill="#009f3d"/><path d="M143.1 17.08a50.45 50.45 0 00-2.45 4.52 47.02 47.02 0 00-5.73 2.85 4.631 4.631 0 00-.39-.99 5.5 5.5 0 00-1.34-1.71 2 2 0 01.15-.29 53.87 53.87 0 019.76-4.38zm44.4 4.67a5.533 5.533 0 00-1.35 1.71 4.79 4.79 0 00-.39 1.01 50.87 50.87 0 00-34.98-5.91 45.72 45.72 0 012.95-3.89 54.33 54.33 0 0133.63 6.81 1.739 1.739 0 01.14.27z" fill="#1e2325"/><path d="M190.619 20.436a5.434 5.434 0 00-1.25.25 5.3 5.3 0 00-1.75.95c-.09-.05-.18-.11-.28-.16a30.672 30.672 0 00-21.56-15.67 1.507 1.507 0 00-.23-.21 5.544 5.544 0 00.36-1.96 5.237 5.237 0 00-.15-1.26 34.09 34.09 0 0124.86 18.06z" fill="#0a85c7"/><path d="M138.279 57.486a5.4 5.4 0 00-1.45 1.37 5.723 5.723 0 00-.62 1.1 34 34 0 01-9.49-29.21 5.022 5.022 0 001.15.53 5.73 5.73 0 001.73.27 1.055 1.055 0 00.25-.02c.04.1.08.2.13.3a30.682 30.682 0 008.22 25.34 1.873 1.873 0 00.08.32z" fill="#009f3d"/><path d="M175.7 66.336a34.061 34.061 0 01-30.72 0 5.079 5.079 0 00.86-.93 5.479 5.479 0 00.86-1.81 1.526 1.526 0 00.3-.03 30.722 30.722 0 0026.67.01 1.553 1.553 0 00.31.03 5.624 5.624 0 00.86 1.8 5.079 5.079 0 00.86.93z" fill="#1e2325"/><path d="M192.7 46.486a33.7 33.7 0 01-8.23 13.47 5.723 5.723 0 00-.62-1.1 5.49 5.49 0 00-1.44-1.37l.06-.32a30.6 30.6 0 008.24-25.33 1.692 1.692 0 00.13-.31 1.055 1.055 0 00.25.02 5.619 5.619 0 001.72-.27 5.022 5.022 0 001.15-.53 33.7 33.7 0 01-1.26 15.74z" fill="#f4c300"/><path d="M155.139 5.606a2.2 2.2 0 00-.23.2 30.622 30.622 0 00-21.55 15.65c-.1.05-.2.11-.3.17a5.541 5.541 0 00-3-1.19 34.09 34.09 0 0124.86-18.06 5.237 5.237 0 00-.15 1.26 5.389 5.389 0 00.37 1.97z" fill="#d13337"/><path d="M157.2 8.256a50.97 50.97 0 00-16.42 31.39 45.59 45.59 0 01-2.77-3.98 54.26 54.26 0 0116.87-29.86 2.741 2.741 0 01.28-.05 5.617 5.617 0 002.04 2.5z" fill="#f4c300"/><circle cx="141.3" cy="62.13" r="3.638" fill="#0a85c7"/><circle cx="179.3" cy="62.13" r="3.638" fill="#d13337"/><circle cx="191.1" cy="25.98" r="3.638" fill="#009f3d"/><circle cx="160.3" cy="3.638" r="3.638" fill="#1e2325"/><circle cx="129.6" cy="25.98" r="3.638" fill="#f4c300"/><path d="M248.5 11.74v1.054h-8.109V.724h7.956v1.054h-6.766V6.13h5.9v1h-5.9v4.607zm4.482 1.223a2.488 2.488 0 01-2.15-.961 4.812 4.812 0 01-.707-2.864v-5.2h1.157v5q0 3.009 2.056 3.009a3.058 3.058 0 001-.17 3.13 3.13 0 00.91-.493 4 4 0 00.749-.765 3.89 3.89 0 00.535-1V3.936h1.156V11.3q0 .476.408.476v1.02a2.208 2.208 0 01-.332.034h-.179a.927.927 0 01-.662-.289 1.021 1.021 0 01-.256-.731v-1.02a4.112 4.112 0 01-1.572 1.607 4.2 4.2 0 01-2.113.566zm11.747-8.007a3.639 3.639 0 00-2.04.646 3.257 3.257 0 00-1.224 1.683v5.508h-1.156V3.936h1.091v2.125a4.022 4.022 0 011.326-1.6 3.076 3.076 0 011.785-.578 1.2 1.2 0 01.221.017zm4.879 8.007a4.216 4.216 0 01-1.769-.365 4.347 4.347 0 01-1.384-1 4.511 4.511 0 01-.911-1.462 4.827 4.827 0 01-.322-1.751 4.757 4.757 0 01.331-1.768 4.662 4.662 0 01.918-1.462 4.468 4.468 0 011.386-1 4.08 4.08 0 011.751-.374 4.143 4.143 0 011.76.374 4.418 4.418 0 011.393 1 4.644 4.644 0 01.918 1.462 4.737 4.737 0 01.332 1.768 4.806 4.806 0 01-.323 1.751 4.54 4.54 0 01-.909 1.462 4.349 4.349 0 01-1.395 1 4.268 4.268 0 01-1.776.365zM266.4 8.407a3.7 3.7 0 00.255 1.386 3.784 3.784 0 00.688 1.122 3.12 3.12 0 001.02.756 2.93 2.93 0 001.25.272 2.857 2.857 0 001.249-.28 3.3 3.3 0 001.029-.766 3.64 3.64 0 00.7-1.13 3.93 3.93 0 000-2.78 3.621 3.621 0 00-.7-1.138 3.3 3.3 0 00-1.029-.765 2.858 2.858 0 00-1.249-.281 2.8 2.8 0 00-1.241.281 3.267 3.267 0 00-1.02.773A3.727 3.727 0 00266.65 7a3.833 3.833 0 00-.25 1.407zm14.07 4.556a3.5 3.5 0 01-1.98-.569 4.522 4.522 0 01-1.385-1.437v5.457h-1.156V3.936h1.037v1.717A4.294 4.294 0 01278.4 4.3a3.613 3.613 0 011.887-.518 3.7 3.7 0 011.682.383 4.284 4.284 0 011.326 1.02 4.713 4.713 0 01.876 1.47 4.838 4.838 0 01.315 1.717 5.369 5.369 0 01-.289 1.768 4.537 4.537 0 01-.825 1.462 3.975 3.975 0 01-1.275 1 3.622 3.622 0 01-1.627.361zm-.322-1.02a2.766 2.766 0 001.3-.306 3.242 3.242 0 001-.807 3.621 3.621 0 00.637-1.14 3.972 3.972 0 00.222-1.317 3.672 3.672 0 00-.256-1.36 3.777 3.777 0 00-.7-1.139 3.319 3.319 0 00-1.046-.782 2.967 2.967 0 00-1.3-.289 2.673 2.673 0 00-.926.178 3.81 3.81 0 00-.9.477 3.19 3.19 0 00-.714.7A1.88 1.88 0 00277.1 7v2.72a4.061 4.061 0 00.519.884 3.666 3.666 0 00.713.706 3.4 3.4 0 00.859.467 2.722 2.722 0 00.957.166zm10.115 1.02a4.265 4.265 0 01-1.776-.365 4.349 4.349 0 01-1.4-1 4.649 4.649 0 01-.925-1.47 4.761 4.761 0 01-.332-1.785 4.649 4.649 0 01.332-1.759 4.524 4.524 0 01.918-1.446 4.359 4.359 0 011.4-.986 4.312 4.312 0 014.93 1 4.669 4.669 0 011.224 3.179v.272a.7.7 0 01-.017.187h-7.582a3.714 3.714 0 00.332 1.318 3.6 3.6 0 00.721 1.045 3.246 3.246 0 001.012.689 3.035 3.035 0 001.216.246 3.119 3.119 0 00.85-.119 3.428 3.428 0 00.782-.323 2.9 2.9 0 00.646-.5 2.13 2.13 0 00.442-.654l1 .272a2.942 2.942 0 01-.579.893 4 4 0 01-.866.7 4.192 4.192 0 01-1.089.459 4.69 4.69 0 01-1.239.147zm3.264-5.063a3.547 3.547 0 00-1.046-2.312 3.165 3.165 0 00-1-.663 3.112 3.112 0 00-1.215-.238 3.186 3.186 0 00-2.236.9 3.265 3.265 0 00-.7 1.02 3.86 3.86 0 00-.315 1.292zm5.116 5.063a3.137 3.137 0 01-1.164-.212 2.946 2.946 0 01-.936-.587 2.636 2.636 0 01-.84-1.955 2.175 2.175 0 01.271-1.071 2.606 2.606 0 01.766-.85 3.736 3.736 0 011.173-.553 5.413 5.413 0 011.5-.2 8.212 8.212 0 011.377.119 5.958 5.958 0 011.24.34V7.2a2.576 2.576 0 00-.662-1.862 2.432 2.432 0 00-1.836-.688 3.911 3.911 0 00-1.4.272 6.768 6.768 0 00-1.445.782l-.407-.765a5.976 5.976 0 013.332-1.156 3.575 3.575 0 012.617.935 3.455 3.455 0 01.952 2.584v4q0 .476.425.476v1.02a2.75 2.75 0 01-.441.051.992.992 0 01-.689-.221.827.827 0 01-.264-.612l-.034-.7a4.014 4.014 0 01-1.538 1.224 4.741 4.741 0 01-1.997.423zm.273-.884a3.99 3.99 0 001.657-.34 2.712 2.712 0 001.147-.9 1.035 1.035 0 00.23-.332.857.857 0 00.076-.331V8.73a7.063 7.063 0 00-1.2-.34 6.742 6.742 0 00-1.267-.119 3.522 3.522 0 00-1.988.51 1.55 1.55 0 00-.766 1.343 1.829 1.829 0 00.162.765 1.934 1.934 0 00.442.62 2.047 2.047 0 00.672.417 2.262 2.262 0 00.835.153zm14.211.714h-1.156V7.846a4.313 4.313 0 00-.467-2.295 1.6 1.6 0 00-1.436-.714 2.939 2.939 0 00-1.021.187 3.451 3.451 0 00-.943.527 4.037 4.037 0 00-.773.807 3.184 3.184 0 00-.494 1.012v5.423h-1.156V3.936h1.055v2.006a4.16 4.16 0 011.555-1.564 4.261 4.261 0 012.2-.6 2.615 2.615 0 011.241.272 2.11 2.11 0 01.815.765 3.534 3.534 0 01.443 1.207 8.45 8.45 0 01.135 1.581zm15.759-1.768a5.109 5.109 0 01-3.876 1.853 4.874 4.874 0 01-2.253-.527 5.956 5.956 0 01-1.785-1.394 6.569 6.569 0 01-1.18-1.963 6.15 6.15 0 01-.426-2.253 6.476 6.476 0 01.417-2.312 6.177 6.177 0 011.164-1.947 5.713 5.713 0 011.768-1.342 4.969 4.969 0 012.227-.5 6.21 6.21 0 011.615.2 4.949 4.949 0 011.3.543 4.17 4.17 0 01.985.833 5.17 5.17 0 01.706 1.063l-.918.612a3.911 3.911 0 00-1.547-1.649 4.383 4.383 0 00-2.159-.527 3.827 3.827 0 00-1.81.425 4.359 4.359 0 00-1.377 1.131 5.16 5.16 0 00-.876 1.614 5.858 5.858 0 00-.306 1.879A5.4 5.4 0 00320.9 8.7a5.144 5.144 0 00.96 1.606 4.68 4.68 0 001.436 1.1 3.991 3.991 0 001.794.408 4.267 4.267 0 001.981-.485 5.852 5.852 0 001.81-1.538V7.778H326.2V6.86h3.689v5.933h-1zm3.214-8.942v-1.7h1.156v1.7zm0 10.71V3.936h1.156v8.857zm8.124-7.837a3.641 3.641 0 00-2.04.646 3.268 3.268 0 00-1.224 1.683v5.508h-1.16V3.936h1.088v2.125a4.047 4.047 0 011.326-1.6A3.079 3.079 0 01340 3.885a1.194 1.194 0 01.221.017zm1.599-4.573h1.156v10.4a1.07 1.07 0 00.271.774 1.019 1.019 0 00.766.28 2.3 2.3 0 00.442-.051 2.9 2.9 0 00.476-.136l.2.935a3.827 3.827 0 01-.791.221 4.57 4.57 0 01-.807.085 1.714 1.714 0 01-1.258-.451 1.691 1.691 0 01-.459-1.266zm7.513 12.58a6.155 6.155 0 01-2.023-.34 4.836 4.836 0 01-1.7-.986l.526-.782a5.766 5.766 0 001.522.918 4.462 4.462 0 001.658.306 2.991 2.991 0 001.708-.433 1.405 1.405 0 00.638-1.233 1.069 1.069 0 00-.17-.62 1.478 1.478 0 00-.5-.434 3.939 3.939 0 00-.833-.332 21.94 21.94 0 00-1.164-.3q-.765-.187-1.327-.374a4.057 4.057 0 01-.926-.425 1.529 1.529 0 01-.544-.587 1.908 1.908 0 01-.179-.875 2.516 2.516 0 01.264-1.173 2.378 2.378 0 01.714-.838 3.217 3.217 0 011.054-.5 4.723 4.723 0 011.283-.17 4.99 4.99 0 011.853.331 3.666 3.666 0 011.344.876l-.562.68a3.113 3.113 0 00-1.2-.765 4.3 4.3 0 00-1.472-.257 3.608 3.608 0 00-.849.094 2.036 2.036 0 00-.689.3 1.475 1.475 0 00-.468.519 1.536 1.536 0 00-.17.739 1.208 1.208 0 00.12.578 1.009 1.009 0 00.39.382 3.18 3.18 0 00.689.289 14.9 14.9 0 001.011.264q.851.2 1.5.408a4.722 4.722 0 011.079.476 1.882 1.882 0 01.654.663 1.912 1.912 0 01.222.952 2.311 2.311 0 01-.936 1.938 4.044 4.044 0 01-2.517.711zm5.064-9.027V.621h1v3.315zM245.281 31.877a5.109 5.109 0 01-2.3-.518 5.738 5.738 0 01-1.793-1.377 6.256 6.256 0 01-1.156-1.963 6.485 6.485 0 01-.408-2.262 6.278 6.278 0 01.433-2.312 6.37 6.37 0 011.2-1.954 5.805 5.805 0 011.8-1.352 5.091 5.091 0 012.244-.5 4.975 4.975 0 012.3.535 5.787 5.787 0 011.785 1.4 6.47 6.47 0 011.148 1.963 6.362 6.362 0 01.408 2.235 6.271 6.271 0 01-.434 2.312 6.354 6.354 0 01-1.189 1.947 5.78 5.78 0 01-1.794 1.343 5.094 5.094 0 01-2.244.503zm-4.471-6.12a5.6 5.6 0 00.323 1.9 5.144 5.144 0 00.918 1.615 4.526 4.526 0 001.411 1.122 3.937 3.937 0 001.819.416 3.875 3.875 0 001.853-.442 4.506 4.506 0 001.411-1.155 5.371 5.371 0 00.893-1.616 5.545 5.545 0 00.314-1.836 5.49 5.49 0 00-.332-1.9 5.185 5.185 0 00-.926-1.607 4.585 4.585 0 00-1.411-1.113 3.9 3.9 0 00-1.8-.416 3.952 3.952 0 00-1.853.433 4.418 4.418 0 00-1.411 1.148 5.315 5.315 0 00-.892 1.614 5.529 5.529 0 00-.317 1.837zM253 19.382h1.155v10.4a1.066 1.066 0 00.272.773 1.011 1.011 0 00.765.28 2.286 2.286 0 00.442-.05 3.117 3.117 0 00.476-.136l.2.934a3.816 3.816 0 01-.79.221 4.59 4.59 0 01-.808.085 1.715 1.715 0 01-1.258-.45 1.693 1.693 0 01-.454-1.262zm4.9 15.13a4.357 4.357 0 00.51.034 1.132 1.132 0 00.484-.085.893.893 0 00.349-.374 6.107 6.107 0 00.383-.833q.212-.543.6-1.461l-3.859-8.857h1.19l3.281 7.786 3.043-7.786h1.1l-4.59 11.424a2.084 2.084 0 01-.62.858 1.782 1.782 0 01-1.182.366c-.113 0-.22 0-.323-.009s-.227-.02-.374-.042zm21.874-2.719h-1.156v-4.947a4.145 4.145 0 00-.493-2.279 1.652 1.652 0 00-1.462-.731 2.485 2.485 0 00-.96.187 2.966 2.966 0 00-.833.527 3.6 3.6 0 00-.672.808 3.888 3.888 0 00-.442 1.029v5.406H272.6v-4.947a4.259 4.259 0 00-.476-2.3 1.638 1.638 0 00-1.462-.714 2.605 2.605 0 00-1.785.7 3.885 3.885 0 00-1.122 1.836v5.423H266.6v-8.855h1.054v2a4.193 4.193 0 011.428-1.589 3.531 3.531 0 011.955-.569 2.518 2.518 0 011.794.629 2.738 2.738 0 01.824 1.649 3.784 3.784 0 013.417-2.278 2.7 2.7 0 011.266.272 2.142 2.142 0 01.833.773 3.617 3.617 0 01.459 1.207 7.8 7.8 0 01.145 1.572zm6.97.169a3.5 3.5 0 01-1.981-.569 4.544 4.544 0 01-1.386-1.436v5.457h-1.156V22.936h1.037v1.716a4.311 4.311 0 011.411-1.351 3.618 3.618 0 011.887-.518 3.714 3.714 0 011.684.382 4.327 4.327 0 011.326 1.02 4.741 4.741 0 01.875 1.47 4.82 4.82 0 01.314 1.718 5.351 5.351 0 01-.289 1.768 4.49 4.49 0 01-.824 1.462 3.972 3.972 0 01-1.275.994 3.618 3.618 0 01-1.623.365zm-.324-1.019a2.768 2.768 0 001.3-.307 3.213 3.213 0 001-.807 3.647 3.647 0 00.638-1.139 4.028 4.028 0 00.221-1.317 3.668 3.668 0 00-.255-1.36 3.738 3.738 0 00-.7-1.139 3.318 3.318 0 00-1.045-.783 2.98 2.98 0 00-1.3-.289 2.681 2.681 0 00-.927.179 3.8 3.8 0 00-.9.476 3.178 3.178 0 00-.715.7 1.866 1.866 0 00-.366.842v2.719a4.044 4.044 0 00.519.885 3.637 3.637 0 00.714.7 3.43 3.43 0 00.858.468 2.73 2.73 0 00.958.172zm6.28-9.863v-1.7h1.157v1.7zm0 10.71v-8.857h1.157v8.857zm5.943.172a3.137 3.137 0 01-1.164-.212 2.944 2.944 0 01-.936-.586 2.64 2.64 0 01-.84-1.955 2.169 2.169 0 01.271-1.071 2.586 2.586 0 01.766-.85 3.693 3.693 0 011.173-.553 5.413 5.413 0 011.5-.2 8.108 8.108 0 011.377.119 5.958 5.958 0 011.24.34v-.8a2.576 2.576 0 00-.662-1.862 2.432 2.432 0 00-1.836-.689 3.911 3.911 0 00-1.4.272 6.73 6.73 0 00-1.445.783l-.407-.766a5.982 5.982 0 013.332-1.155 3.575 3.575 0 012.617.934 3.457 3.457 0 01.952 2.584v4q0 .477.425.477v1.02a2.724 2.724 0 01-.441.05 1 1 0 01-.689-.22.831.831 0 01-.264-.613l-.034-.7a4.026 4.026 0 01-1.538 1.225 4.741 4.741 0 01-1.997.428zm.273-.883a3.991 3.991 0 001.657-.341 2.712 2.712 0 001.147-.9 1.042 1.042 0 00.23-.331.866.866 0 00.076-.332V27.73a7.063 7.063 0 00-1.2-.34 6.742 6.742 0 00-1.267-.119 3.522 3.522 0 00-1.988.509 1.551 1.551 0 00-.766 1.344 1.833 1.833 0 00.162.765 1.945 1.945 0 00.442.62 2.045 2.045 0 00.672.416 2.242 2.242 0 00.835.154zm10.403.883a3.815 3.815 0 01-1.7-.382 4.309 4.309 0 01-1.343-1.012 4.628 4.628 0 01-.875-1.453 4.8 4.8 0 01-.315-1.725 5.158 5.158 0 01.306-1.777 4.721 4.721 0 01.842-1.47 3.947 3.947 0 011.274-1 3.609 3.609 0 011.624-.365 3.465 3.465 0 011.989.586 4.437 4.437 0 011.36 1.42v-5.402h1.156V30.3q0 .477.408.477v1.02a2.178 2.178 0 01-.408.05 1.063 1.063 0 01-.714-.263.811.811 0 01-.306-.637v-.867a3.876 3.876 0 01-1.428 1.377 3.746 3.746 0 01-1.87.505zm.255-1.019a2.767 2.767 0 00.91-.17 3.747 3.747 0 00.909-.468 3.133 3.133 0 00.723-.7 1.881 1.881 0 00.365-.858v-2.734a3.013 3.013 0 00-.493-.859 3.989 3.989 0 00-.739-.706 3.523 3.523 0 00-.893-.475 2.753 2.753 0 00-.935-.171 2.717 2.717 0 00-1.292.306 3.3 3.3 0 00-1 .808 3.621 3.621 0 00-.637 1.147 4.06 4.06 0 00-.221 1.327 3.711 3.711 0 00.952 2.49 3.376 3.376 0 001.046.774 2.974 2.974 0 001.305.289zM320.6 21.08v-1.7h1.157v1.7zm0 10.71v-8.857h1.157v8.857zm11.142.003h-1.157v-4.947a4.328 4.328 0 00-.466-2.3 1.6 1.6 0 00-1.437-.714 2.953 2.953 0 00-1.02.187 3.468 3.468 0 00-.944.527 4.016 4.016 0 00-.773.808 3.161 3.161 0 00-.493 1.012v5.423H324.3v-8.853h1.055v2a4.16 4.16 0 011.555-1.564 4.272 4.272 0 012.2-.594 2.615 2.615 0 011.241.272 2.124 2.124 0 01.816.764 3.533 3.533 0 01.442 1.207 8.446 8.446 0 01.136 1.581zm7.058-.003V19.72h1.189v12.07zm11.4.003h-1.157v-4.947a4.327 4.327 0 00-.467-2.3 1.6 1.6 0 00-1.437-.714 2.951 2.951 0 00-1.019.187 3.458 3.458 0 00-.945.527 4.044 4.044 0 00-.773.808 3.138 3.138 0 00-.492 1.012v5.423h-1.157v-8.853h1.054v2a4.155 4.155 0 011.556-1.564 4.269 4.269 0 012.2-.594 2.613 2.613 0 011.241.272 2.117 2.117 0 01.816.764 3.513 3.513 0 01.442 1.207 8.442 8.442 0 01.137 1.581zm2.808 0v-7.939h-1.223v-.918h1.223V22.7a4.168 4.168 0 01.7-2.558 2.253 2.253 0 011.9-.927 3.425 3.425 0 011.02.154 2.943 2.943 0 01.85.407l-.356.833a1.751 1.751 0 00-.587-.289 2.541 2.541 0 00-.7-.1 1.407 1.407 0 00-1.242.629 3.252 3.252 0 00-.424 1.82v.272h2.448v.918h-2.448v7.939zm8.517.169a4.211 4.211 0 01-1.768-.365 4.348 4.348 0 01-1.385-.994 4.519 4.519 0 01-.91-1.462 4.814 4.814 0 01-.323-1.751 4.734 4.734 0 01.332-1.768 4.622 4.622 0 01.918-1.462 4.467 4.467 0 011.385-1 4.083 4.083 0 011.751-.373 4.14 4.14 0 011.76.373 4.436 4.436 0 011.394 1 4.639 4.639 0 01.918 1.462 4.733 4.733 0 01.331 1.768 4.793 4.793 0 01-.323 1.751 4.533 4.533 0 01-.905 1.459 4.331 4.331 0 01-1.394.994 4.273 4.273 0 01-1.781.368zm-3.213-4.556a3.7 3.7 0 00.255 1.386 3.8 3.8 0 00.688 1.122 3.1 3.1 0 001.021.756 2.923 2.923 0 001.249.273 2.862 2.862 0 001.25-.281 3.32 3.32 0 001.025-.762 3.626 3.626 0 00.7-1.13 3.916 3.916 0 000-2.78 3.6 3.6 0 00-.7-1.139 3.32 3.32 0 00-1.028-.765 2.862 2.862 0 00-1.25-.281 2.8 2.8 0 00-1.24.281 3.3 3.3 0 00-1.021.773 3.764 3.764 0 00-.7 1.148 3.828 3.828 0 00-.249 1.399zm13.974-3.45a3.631 3.631 0 00-2.04.646 3.249 3.249 0 00-1.224 1.683v5.508h-1.156v-8.857h1.088v2.125a4.035 4.035 0 011.326-1.6 3.074 3.074 0 011.785-.578 1.194 1.194 0 01.221.017zm14.722 7.837h-1.156v-4.947a4.154 4.154 0 00-.493-2.279 1.653 1.653 0 00-1.462-.731 2.5 2.5 0 00-.961.187 2.98 2.98 0 00-.833.527 3.623 3.623 0 00-.671.808 3.888 3.888 0 00-.442 1.029v5.406h-1.157v-4.947a4.26 4.26 0 00-.475-2.3 1.637 1.637 0 00-1.462-.714 2.605 2.605 0 00-1.785.7 3.869 3.869 0 00-1.122 1.836v5.423h-1.156v-8.855h1.054v2a4.193 4.193 0 011.428-1.589 3.531 3.531 0 011.955-.569 2.512 2.512 0 011.793.629 2.734 2.734 0 01.825 1.649 3.783 3.783 0 013.417-2.278 2.711 2.711 0 011.267.272 2.149 2.149 0 01.833.773 3.66 3.66 0 01.459 1.207 7.954 7.954 0 01.144 1.572zm4.675.169a3.142 3.142 0 01-1.165-.212 2.939 2.939 0 01-.935-.586 2.646 2.646 0 01-.841-1.955 2.181 2.181 0 01.272-1.071 2.572 2.572 0 01.765-.85 3.724 3.724 0 011.173-.553 5.413 5.413 0 011.5-.2 8.108 8.108 0 011.377.119 5.968 5.968 0 011.241.34v-.8a2.572 2.572 0 00-.663-1.862 2.431 2.431 0 00-1.836-.689 3.91 3.91 0 00-1.394.272 6.707 6.707 0 00-1.445.783l-.408-.766a5.982 5.982 0 013.332-1.155 3.577 3.577 0 012.618.934 3.457 3.457 0 01.952 2.584v4q0 .477.425.477v1.02a2.734 2.734 0 01-.442.05 1 1 0 01-.689-.22.838.838 0 01-.264-.613l-.033-.7a4.022 4.022 0 01-1.539 1.225 4.733 4.733 0 01-2.001.428zm.272-.883a4 4 0 001.658-.341 2.706 2.706 0 001.147-.9 1.076 1.076 0 00.23-.331.848.848 0 00.076-.332V27.73a7.115 7.115 0 00-1.2-.34 6.742 6.742 0 00-1.267-.119 3.523 3.523 0 00-1.989.509 1.552 1.552 0 00-.765 1.344 1.848 1.848 0 00.161.765 1.933 1.933 0 00.443.62 2.03 2.03 0 00.671.416 2.242 2.242 0 00.835.154zm10.945.289a6.088 6.088 0 01-.75.305 5.136 5.136 0 01-.578.154 3.33 3.33 0 01-.68.067 2.47 2.47 0 01-.714-.1 1.678 1.678 0 01-.6-.315 1.565 1.565 0 01-.408-.535 1.745 1.745 0 01-.152-.749v-6.34H397.8v-.918h1.225v-2.994h1.156v2.993h2.04v.918h-2.04v6.018a.917.917 0 00.348.721 1.183 1.183 0 00.722.231 2.165 2.165 0 00.868-.162 3.978 3.978 0 00.476-.229zm1.4-10.288v-1.7h1.153v1.7zm0 10.71v-8.857h1.153v8.857zm3.142-4.452a4.857 4.857 0 01.322-1.768 4.432 4.432 0 01.91-1.453 4.245 4.245 0 011.4-.977 4.427 4.427 0 011.8-.357 4.134 4.134 0 012.194.569 3.661 3.661 0 011.411 1.539l-1.122.357a2.7 2.7 0 00-1.046-1.063 2.949 2.949 0 00-1.487-.383 2.982 2.982 0 00-1.267.273 3.2 3.2 0 00-1.019.739 3.387 3.387 0 00-.681 1.113 4.1 4.1 0 00.009 2.823 3.6 3.6 0 00.7 1.147 3.308 3.308 0 001.028.765 2.861 2.861 0 001.249.281 3.064 3.064 0 00.842-.119 3.274 3.274 0 00.773-.332 2.729 2.729 0 00.613-.485 1.561 1.561 0 00.356-.577l1.14.34a2.922 2.922 0 01-.544.875 3.729 3.729 0 01-.842.7 4.084 4.084 0 01-1.071.459 4.542 4.542 0 01-1.215.161 4.295 4.295 0 01-3.2-1.369 4.621 4.621 0 01-.927-1.469 4.789 4.789 0 01-.326-1.789zm12.886 4.624a6.182 6.182 0 01-2.024-.339 4.862 4.862 0 01-1.7-.987l.526-.781a5.793 5.793 0 001.522.918 4.482 4.482 0 001.658.306 2.991 2.991 0 001.708-.434 1.4 1.4 0 00.638-1.232 1.072 1.072 0 00-.17-.621 1.469 1.469 0 00-.5-.434 4 4 0 00-.833-.331c-.334-.1-.723-.2-1.164-.3q-.765-.187-1.326-.375a4.068 4.068 0 01-.927-.424 1.544 1.544 0 01-.544-.587 1.91 1.91 0 01-.179-.876 2.516 2.516 0 01.264-1.173 2.406 2.406 0 01.714-.841 3.246 3.246 0 011.054-.5 4.692 4.692 0 011.284-.17 4.968 4.968 0 011.852.331 3.677 3.677 0 011.344.875l-.562.68a3.137 3.137 0 00-1.2-.765 4.3 4.3 0 00-1.471-.255 3.668 3.668 0 00-.849.094 2.026 2.026 0 00-.689.3 1.46 1.46 0 00-.467.518 1.525 1.525 0 00-.17.739 1.2 1.2 0 00.119.578 1.011 1.011 0 00.39.383 3.2 3.2 0 00.689.289q.416.128 1.012.264c.566.135 1.065.272 1.5.407a4.722 4.722 0 011.079.476 1.882 1.882 0 01.654.663 1.905 1.905 0 01.222.953 2.312 2.312 0 01-.936 1.938 4.049 4.049 0 01-2.518.713zm-174.69 17.777v1.054h-5.627v-1.054h2.3v-9.877a2.1 2.1 0 01-.45.45 6.892 6.892 0 01-.7.476 4.754 4.754 0 01-.791.382 2.131 2.131 0 01-.748.154v-1.088a1.708 1.708 0 00.6-.119 3.755 3.755 0 00.612-.3 4.975 4.975 0 00.562-.391q.263-.212.459-.4c.13-.125.234-.23.314-.315s.124-.133.136-.144h1.173v11.172zm5.185 1.207a5.339 5.339 0 01-1.5-.2 4.185 4.185 0 01-1.224-.57 3.2 3.2 0 01-.867-.884 2.926 2.926 0 01-.443-1.148l.714-.645a2.035 2.035 0 00.282.867 2.584 2.584 0 00.679.756 3.609 3.609 0 001.037.536 4.1 4.1 0 001.318.2 4.033 4.033 0 001.2-.171 3.075 3.075 0 00.961-.476 2.232 2.232 0 00.638-.739 2 2 0 00.229-.943 1.879 1.879 0 00-.272-1 2.333 2.333 0 00-.783-.757 3.993 3.993 0 00-1.223-.476 7.242 7.242 0 00-1.6-.162h-.569v-1h.578a5.236 5.236 0 002.61-.544 1.767 1.767 0 00.943-1.631 2.088 2.088 0 00-.221-.961 2.246 2.246 0 00-.6-.74 2.868 2.868 0 00-.893-.475 3.374 3.374 0 00-1.071-.17 3.592 3.592 0 00-1.921.492 2.75 2.75 0 00-1.122 1.225l-.8-.782a2.929 2.929 0 01.638-.825 4 4 0 01.9-.621 4.726 4.726 0 011.088-.39 5.28 5.28 0 011.2-.136 4.825 4.825 0 011.6.255 3.989 3.989 0 011.266.7 3.32 3.32 0 01.842 1.062 2.943 2.943 0 01.306 1.326 2.457 2.457 0 01-.6 1.709 3.4 3.4 0 01-1.759.96 3.632 3.632 0 011.1.4 3.167 3.167 0 01.841.688 3.009 3.009 0 01.536.918 3.108 3.108 0 01.187 1.072 2.749 2.749 0 01-.34 1.368 3.238 3.238 0 01-.918 1.028 4.354 4.354 0 01-1.343.655 5.6 5.6 0 01-1.624.229zM260.3 46.7v-1.075h7.463V46.7zm18.658 3.039v1.054h-5.627v-1.054h2.294v-9.877a2.079 2.079 0 01-.45.45 6.892 6.892 0 01-.7.476 4.754 4.754 0 01-.791.382 2.122 2.122 0 01-.748.154v-1.088a1.7 1.7 0 00.6-.119 3.764 3.764 0 00.613-.3 4.962 4.962 0 00.561-.391q.263-.212.459-.4t.315-.315l.135-.144h1.181v11.172zm1.087-6.953a4.021 4.021 0 01.331-1.624 4.131 4.131 0 012.253-2.2 4.387 4.387 0 011.683-.323 4.434 4.434 0 011.751.34 3.742 3.742 0 011.368 1 4.752 4.752 0 01.893 1.589 6.417 6.417 0 01.323 2.108 14.115 14.115 0 01-.323 3.222 7.286 7.286 0 01-.909 2.278 3.869 3.869 0 01-1.4 1.351 3.752 3.752 0 01-1.819.442 3.965 3.965 0 01-2.142-.594 3.782 3.782 0 01-1.445-1.666l.731-.663a2.965 2.965 0 001.13 1.377 3.1 3.1 0 001.743.509 2.7 2.7 0 001.36-.348 3.094 3.094 0 001.055-1.029 5.4 5.4 0 00.672-1.655 9.43 9.43 0 00.238-2.228 3.2 3.2 0 01-1.284 1.6 3.678 3.678 0 01-2.065.6 4.093 4.093 0 01-1.623-.323 4.2 4.2 0 01-1.318-.876 4.1 4.1 0 01-.884-1.292 3.933 3.933 0 01-.319-1.595zm4.25-3.146a3.031 3.031 0 00-1.215.247 3.106 3.106 0 00-1 .68 3.257 3.257 0 00-.671 1 2.991 2.991 0 00-.247 1.2 3.032 3.032 0 00.247 1.216 3.208 3.208 0 001.682 1.683 3.117 3.117 0 002.432 0 3.225 3.225 0 001-.68 3.359 3.359 0 00.688-.994 2.884 2.884 0 00.255-1.207 2.959 2.959 0 00-.255-1.207 3.182 3.182 0 00-.688-1 3.412 3.412 0 00-1.012-.681 3 3 0 00-1.211-.257zM294 49.28a3.693 3.693 0 00.96.441 4.321 4.321 0 001.318.188 2.837 2.837 0 001.47-.332 2.1 2.1 0 00.842-.978 5.031 5.031 0 00.374-1.589q.085-.943.085-2.15v-6.138h1.19v6.138a22.49 22.49 0 01-.127 2.507 5.578 5.578 0 01-.537 1.929 2.914 2.914 0 01-1.189 1.242 4.285 4.285 0 01-2.108.441 4.517 4.517 0 01-2.619-.747zm11.7 1.68a2.493 2.493 0 01-2.151-.96 4.821 4.821 0 01-.706-2.865v-5.2H304v5q0 3.011 2.056 3.01a3.058 3.058 0 001-.17 3.154 3.154 0 00.91-.493 4 4 0 00.748-.766 3.814 3.814 0 00.535-1v-5.583h1.157v7.365c0 .318.135.477.408.477v1.02a2.208 2.208 0 01-.332.034h-.179a.927.927 0 01-.662-.289 1.024 1.024 0 01-.256-.732v-1.023a4.122 4.122 0 01-1.572 1.606 4.187 4.187 0 01-2.113.569zm14.7-.17h-1.156v-4.948a4.316 4.316 0 00-.468-2.3 1.6 1.6 0 00-1.436-.714 2.939 2.939 0 00-1.02.188 3.424 3.424 0 00-.944.526 4.076 4.076 0 00-.774.808 3.169 3.169 0 00-.492 1.012v5.423h-1.156v-8.853h1.054v2.007a4.148 4.148 0 011.555-1.565 4.269 4.269 0 012.2-.594 2.626 2.626 0 011.242.271 2.123 2.123 0 01.816.766 3.5 3.5 0 01.441 1.207 8.434 8.434 0 01.137 1.581zm6.3.17a4.268 4.268 0 01-1.776-.365 4.353 4.353 0 01-1.4-1 4.619 4.619 0 01-.927-1.47 4.789 4.789 0 01-.331-1.786 4.668 4.668 0 01.331-1.759 4.537 4.537 0 01.918-1.445 4.355 4.355 0 011.4-.986 4.486 4.486 0 013.545 0 4.244 4.244 0 011.386.994 4.675 4.675 0 011.223 3.18v.271a.718.718 0 01-.016.188h-7.582a3.708 3.708 0 00.331 1.317 3.612 3.612 0 00.722 1.045 3.229 3.229 0 001.012.689 3.01 3.01 0 001.215.247 3.128 3.128 0 00.851-.12 3.383 3.383 0 00.782-.323 2.86 2.86 0 00.645-.5 2.175 2.175 0 00.443-.654l1 .271a2.965 2.965 0 01-.578.893 4.019 4.019 0 01-.868.7 4.2 4.2 0 01-1.088.459 4.7 4.7 0 01-1.238.154zm3.264-5.066a3.553 3.553 0 00-1.045-2.312 3.182 3.182 0 00-1-.663 3.135 3.135 0 00-1.216-.238 3.188 3.188 0 00-1.223.238 3.156 3.156 0 00-1.012.663 3.262 3.262 0 00-.7 1.02 3.86 3.86 0 00-.315 1.292zm6.736 4.896v-.239a7.591 7.591 0 01.22-1.946 4.811 4.811 0 01.638-1.445 4.285 4.285 0 011.028-1.071 8.672 8.672 0 011.395-.825q.578-.272 1.207-.526a6.5 6.5 0 001.155-.6 3.109 3.109 0 00.867-.842 2.132 2.132 0 00.34-1.241 2.6 2.6 0 00-.161-.909 2.164 2.164 0 00-1.283-1.292 3.138 3.138 0 00-1.156-.2 3.776 3.776 0 00-1.2.178 4.592 4.592 0 00-.952.433 3.911 3.911 0 00-.723.562 6.743 6.743 0 00-.509.56l-.766-.748c.068-.079.207-.231.417-.459a4.7 4.7 0 01.85-.7 6.313 6.313 0 011.283-.638 4.874 4.874 0 011.718-.28 4.419 4.419 0 011.64.28 3.366 3.366 0 011.173.757 3.154 3.154 0 01.705 1.1 3.715 3.715 0 01.239 1.327 3.1 3.1 0 01-.333 1.487 3.522 3.522 0 01-.858 1.062 5.41 5.41 0 01-1.173.748q-.645.307-1.274.579a8.766 8.766 0 00-1.573.841 4.575 4.575 0 00-1 .91 2.835 2.835 0 00-.518.994 3.977 3.977 0 00-.145 1.08h6.885v1.054zm14.9.17a4.246 4.246 0 01-2.16-.612 5.336 5.336 0 01-1.563-1.462 6.626 6.626 0 01-.952-1.955 6.979 6.979 0 01.025-4.275 6.737 6.737 0 011-1.972 5.2 5.2 0 011.573-1.42 4.038 4.038 0 012.082-.544 3.972 3.972 0 012.168.587 5.427 5.427 0 011.555 1.487 6.737 6.737 0 01.944 1.981 7.405 7.405 0 01.314 2.065 7.134 7.134 0 01-.349 2.194 6.615 6.615 0 01-.994 1.955 5.318 5.318 0 01-1.566 1.409 4.12 4.12 0 01-2.077.562zm-3.791-6.12a7.008 7.008 0 00.272 1.785 5.914 5.914 0 00.723 1.624 3.932 3.932 0 001.173 1.181 3.1 3.1 0 003.289-.025 4.079 4.079 0 001.181-1.233 5.973 5.973 0 00.706-1.64 6.255 6.255 0 00-.017-3.477 5.643 5.643 0 00-.74-1.623 4.147 4.147 0 00-1.19-1.182 2.888 2.888 0 00-1.606-.459 2.843 2.843 0 00-1.674.494 4.323 4.323 0 00-1.182 1.241 5.681 5.681 0 00-.706 1.632 6.74 6.74 0 00-.229 1.682zm10.491 5.95v-.239a7.585 7.585 0 01.222-1.946 4.785 4.785 0 01.637-1.445 4.306 4.306 0 011.029-1.071 8.618 8.618 0 011.394-.825c.384-.181.788-.356 1.207-.526a6.542 6.542 0 001.156-.6 3.136 3.136 0 00.867-.842 2.132 2.132 0 00.34-1.241 2.579 2.579 0 00-.162-.909 2.157 2.157 0 00-1.283-1.292 3.136 3.136 0 00-1.157-.2 3.782 3.782 0 00-1.2.178 4.616 4.616 0 00-.952.433 3.911 3.911 0 00-.723.562 6.743 6.743 0 00-.509.56l-.765-.748c.067-.079.206-.231.416-.459a4.713 4.713 0 01.851-.7 6.261 6.261 0 011.283-.638 4.872 4.872 0 011.717-.28 4.419 4.419 0 011.64.28 3.348 3.348 0 011.173.757 3.157 3.157 0 01.706 1.1 3.736 3.736 0 01.237 1.327 3.113 3.113 0 01-.331 1.487 3.537 3.537 0 01-.858 1.062 5.434 5.434 0 01-1.173.748q-.648.307-1.275.579a8.8 8.8 0 00-1.573.841 4.6 4.6 0 00-1 .91 2.835 2.835 0 00-.518.994 4.016 4.016 0 00-.144 1.08h6.896v1.054zm15.7-1.05v1.054h-5.627V49.74h2.3v-9.877a2.056 2.056 0 01-.45.45 6.892 6.892 0 01-.7.476 4.783 4.783 0 01-.79.382 2.135 2.135 0 01-.748.154v-1.088a1.712 1.712 0 00.6-.119 3.887 3.887 0 00.613-.3 5.041 5.041 0 00.56-.391c.176-.141.328-.274.459-.4s.236-.23.315-.315l.135-.144h1.174v11.17zM239.4 68.86l8.211-10.08h-8.075v-1.055h9.452v.936l-8.109 10.08h8.088v1.054h-9.571zm13.956 1.102a2.49 2.49 0 01-2.15-.96 4.814 4.814 0 01-.706-2.865v-5.2h1.156v5q0 3.01 2.056 3.01a3.058 3.058 0 001-.17 3.154 3.154 0 00.91-.493 4.033 4.033 0 00.749-.766 3.873 3.873 0 00.535-1v-5.583h1.156V68.3q0 .477.408.477v1.02a2.208 2.208 0 01-.332.034h-.179a.927.927 0 01-.662-.289 1.024 1.024 0 01-.256-.732v-1.023a4.116 4.116 0 01-1.572 1.606 4.187 4.187 0 01-2.113.569zm11.744-8.006a3.638 3.638 0 00-2.04.645 3.26 3.26 0 00-1.224 1.684v5.508h-1.156v-8.858h1.088v2.125a4.03 4.03 0 011.326-1.6 3.084 3.084 0 011.785-.578 1.109 1.109 0 01.221.018zm1.5-2.876v-1.7h1.156v1.7zm0 10.71v-8.858h1.156v8.858zm3.144-4.452a4.828 4.828 0 01.323-1.767 4.407 4.407 0 01.909-1.454 4.269 4.269 0 011.4-.978 4.467 4.467 0 011.8-.356 4.132 4.132 0 012.193.569 3.671 3.671 0 011.411 1.538l-1.122.358a2.691 2.691 0 00-1.045-1.063 3.077 3.077 0 00-2.754-.11 3.211 3.211 0 00-1.021.739 3.4 3.4 0 00-.679 1.113 4.1 4.1 0 00.007 2.823 3.611 3.611 0 00.7 1.147 3.32 3.32 0 001.028.765 2.865 2.865 0 001.25.281 3.074 3.074 0 00.842-.119 3.233 3.233 0 00.773-.332 2.774 2.774 0 00.612-.485 1.578 1.578 0 00.357-.578l1.139.34a2.919 2.919 0 01-.544.876 3.751 3.751 0 01-.842.7 4.078 4.078 0 01-1.07.459 4.555 4.555 0 01-1.216.161 4.3 4.3 0 01-3.2-1.368 4.649 4.649 0 01-.925-1.47 4.77 4.77 0 01-.326-1.789zm17.391 4.455h-1.156v-4.948a3.991 3.991 0 00-.519-2.261 1.732 1.732 0 00-1.521-.748 2.605 2.605 0 00-.978.2 3.7 3.7 0 00-1.649 1.335 3.357 3.357 0 00-.467 1v5.423h-1.156V57.382h1.156v5.56a4 4 0 011.462-1.581 3.769 3.769 0 012.023-.578 2.726 2.726 0 011.292.28 2.4 2.4 0 01.867.782 3.452 3.452 0 01.493 1.207 7.415 7.415 0 01.153 1.556zM302.1 59.98a3.685 3.685 0 00-1.36-.936 4.968 4.968 0 00-1.938-.356 3.645 3.645 0 00-2.329.6 2.017 2.017 0 00-.731 1.64 1.815 1.815 0 00.195.893 1.715 1.715 0 00.6.6 4.245 4.245 0 001.046.443q.636.188 1.5.374a16.15 16.15 0 011.743.459 4.967 4.967 0 011.317.637 2.648 2.648 0 01.833.926 2.886 2.886 0 01.289 1.36 3.049 3.049 0 01-.323 1.446 2.868 2.868 0 01-.894 1.03 3.991 3.991 0 01-1.376.6 7.347 7.347 0 01-1.751.2 7.194 7.194 0 01-4.846-1.751l.6-.969a4.617 4.617 0 00.773.647 5.571 5.571 0 001 .535 6.355 6.355 0 001.182.357 6.642 6.642 0 001.325.127 4.151 4.151 0 002.253-.518 1.741 1.741 0 00.807-1.572 1.806 1.806 0 00-.229-.944 2 2 0 00-.689-.663 4.824 4.824 0 00-1.139-.484q-.68-.2-1.58-.408-.954-.222-1.666-.459a4.456 4.456 0 01-1.207-.595 2.311 2.311 0 01-.741-.859 2.783 2.783 0 01-.246-1.232 3.387 3.387 0 01.315-1.488 2.93 2.93 0 01.892-1.088 4.222 4.222 0 011.361-.663 6.129 6.129 0 011.733-.23 5.909 5.909 0 012.15.366 5.752 5.752 0 011.709 1.029zm13.8.96h1.139l-3.808 8.858h-.952l-1.9-4.523-1.887 4.523h-.952l-3.808-8.858h1.122l3.23 7.667 1.683-4.046-1.513-3.6h.969l1.156 2.889 1.156-2.889h.986l-1.514 3.6 1.684 4.046zm2.7-1.86v-1.7h1.156v1.7zm0 10.71v-8.858h1.156v8.858zm8-.42c-.068.034-.168.079-.3.135s-.28.114-.45.17a5.136 5.136 0 01-.578.154 3.33 3.33 0 01-.68.067 2.47 2.47 0 01-.714-.1 1.678 1.678 0 01-.6-.315 1.577 1.577 0 01-.408-.535 1.747 1.747 0 01-.152-.748v-6.343h-1.225v-.918h1.225v-2.991h1.156v2.991h2.04v.918h-2.04v6.019a.919.919 0 00.348.722 1.2 1.2 0 00.723.23 2.163 2.163 0 00.867-.162 3.774 3.774 0 00.476-.23zm.7-.36l5.985-7.208h-5.847v-.867h7.1v.782l-5.966 7.208h5.95v.868h-7.226zm12.7.95a4.268 4.268 0 01-1.776-.365 4.353 4.353 0 01-1.4-1 4.637 4.637 0 01-.927-1.47 4.789 4.789 0 01-.331-1.786 4.668 4.668 0 01.331-1.759 4.554 4.554 0 01.918-1.445 4.365 4.365 0 011.4-.986 4.486 4.486 0 013.545 0 4.244 4.244 0 011.386.994 4.682 4.682 0 011.224 3.18v.271a.705.705 0 01-.017.188h-7.582a3.708 3.708 0 00.331 1.317 3.6 3.6 0 00.723 1.045 3.225 3.225 0 001.011.689 3.014 3.014 0 001.215.247 3.123 3.123 0 00.851-.12 3.383 3.383 0 00.782-.323 2.888 2.888 0 00.646-.5 2.19 2.19 0 00.442-.654l1 .271a2.965 2.965 0 01-.578.893 4.013 4.013 0 01-.867.7 4.229 4.229 0 01-1.088.459 4.71 4.71 0 01-1.239.154zm3.264-5.066a3.553 3.553 0 00-1.045-2.312 3.182 3.182 0 00-1-.663 3.135 3.135 0 00-1.216-.238 3.192 3.192 0 00-1.223.238 3.156 3.156 0 00-1.012.663 3.279 3.279 0 00-.7 1.02 3.884 3.884 0 00-.315 1.292zm7.236-2.934a3.638 3.638 0 00-2.04.645 3.26 3.26 0 00-1.224 1.684v5.508h-1.156v-8.858h1.085v2.125a4.039 4.039 0 011.326-1.6 3.081 3.081 0 011.785-.578 1.1 1.1 0 01.221.018zm1.6-4.58h1.157v10.4a1.063 1.063 0 00.271.773 1.019 1.019 0 00.766.28 2.285 2.285 0 00.441-.05 3.13 3.13 0 00.477-.136l.2.934a3.845 3.845 0 01-.791.221 4.581 4.581 0 01-.808.085 1.716 1.716 0 01-1.258-.45 1.7 1.7 0 01-.459-1.267zm6.8 12.58a3.142 3.142 0 01-1.165-.212 2.939 2.939 0 01-.935-.586 2.646 2.646 0 01-.841-1.955 2.19 2.19 0 01.272-1.072 2.589 2.589 0 01.765-.849 3.746 3.746 0 011.173-.553 5.413 5.413 0 011.5-.195 8.212 8.212 0 011.377.119 5.907 5.907 0 011.241.34v-.8a2.572 2.572 0 00-.663-1.862 2.43 2.43 0 00-1.836-.688 3.93 3.93 0 00-1.394.271 6.751 6.751 0 00-1.445.783l-.408-.765a5.976 5.976 0 013.332-1.156 3.577 3.577 0 012.618.934 3.458 3.458 0 01.952 2.584v4q0 .477.425.477v1.02a2.734 2.734 0 01-.442.05 1 1 0 01-.689-.22.838.838 0 01-.264-.613l-.033-.7a4.029 4.029 0 01-1.539 1.224 4.733 4.733 0 01-2.001.424zm.272-.883a4.014 4.014 0 001.658-.34 2.707 2.707 0 001.147-.9 1.064 1.064 0 00.23-.331.844.844 0 00.076-.332v-1.447a7.308 7.308 0 00-1.2-.34 6.742 6.742 0 00-1.267-.119 3.523 3.523 0 00-1.989.511 1.55 1.55 0 00-.765 1.343 1.84 1.84 0 00.161.764 1.926 1.926 0 00.443.621 2.03 2.03 0 00.671.416 2.242 2.242 0 00.835.154zm14.228.713h-1.156v-4.948a4.316 4.316 0 00-.468-2.3 1.6 1.6 0 00-1.436-.714 2.939 2.939 0 00-1.02.188 3.438 3.438 0 00-.944.526 4.044 4.044 0 00-.773.808 3.151 3.151 0 00-.493 1.012v5.423h-1.156v-8.853h1.054v2.007a4.151 4.151 0 011.556-1.565 4.266 4.266 0 012.2-.594 2.625 2.625 0 011.241.271 2.123 2.123 0 01.816.766 3.518 3.518 0 01.442 1.207 8.438 8.438 0 01.136 1.581zm6.1.17a3.815 3.815 0 01-1.7-.382 4.322 4.322 0 01-1.343-1.011 4.666 4.666 0 01-.876-1.454 4.792 4.792 0 01-.314-1.726 5.179 5.179 0 01.305-1.776 4.777 4.777 0 01.842-1.471 3.983 3.983 0 011.275-.994 3.628 3.628 0 011.624-.365 3.465 3.465 0 011.989.586 4.437 4.437 0 011.36 1.42V57.38h1.155V68.3c0 .318.137.477.409.477v1.02a2.178 2.178 0 01-.409.05 1.063 1.063 0 01-.713-.263.808.808 0 01-.306-.637v-.867a3.876 3.876 0 01-1.428 1.377 3.746 3.746 0 01-1.87.505zm.255-1.019a2.761 2.761 0 00.909-.17 3.729 3.729 0 00.909-.468 3.114 3.114 0 00.723-.7 1.9 1.9 0 00.366-.858V64.01a3.07 3.07 0 00-.493-.858 3.989 3.989 0 00-.74-.705 3.476 3.476 0 00-.892-.477 2.78 2.78 0 00-.935-.17 2.718 2.718 0 00-1.292.307 3.254 3.254 0 00-1 .807 3.6 3.6 0 00-.637 1.148 4.049 4.049 0 00-.221 1.325 3.717 3.717 0 00.951 2.491 3.4 3.4 0 001.046.774 2.981 2.981 0 001.306.289z" fill="#1e2325"/></svg>